<svg xmlns="http://www.w3.org/2000/svg" xmlns:xlink="http://www.w3.org/1999/xlink" width="64" height="64" viewBox="0 0 64 64">
    <defs>
        <rect id="prefix__a" width="64" height="64" x="0" y="0" rx="32"/>
    </defs>
    <g fill="none" fill-rule="evenodd">
        <mask id="prefix__b" fill="#fff">
            <use xlink:href="#prefix__a"/>
        </mask>
        <use fill="#ECECEC" xlink:href="#prefix__a"/>
        <path fill="#C3C3CC" d="M24.71 20.959c-1.358 2.053-2.193 4.381-2.452 6.79-.131 1.209-.873 2.151-1.743 3.024-.14.14-.244.35-.284.657-.135 1.571.244 3.144 1.083 4.489.047 2.627 2.08 2.68 2.08 2.68.335 1.25.765 2.473 1.286 3.659.637 1.45.735 3.069.412 4.614l-.225 1.072-.063.3c.421.084-2.687 1.7-5.733 3.53-3.569 2.153-10.309 11.413-7.894 12.018 1.879.468 10.624 0 17.02 0h3.896c8.678-.053 20.277.2 20.916 0 1.752-.575-4.046-9.82-7.21-12.048-2.672-1.884-5.413-3.532-5.413-3.532l-.078-.298-.014-.05c-.52-1.902-.279-3.905.569-5.69.749-1.578 1.225-3.127 1.447-3.176.342-.077 2.033-.903 1.955-1.808-.062-.697.413-1.792.78-2.994.1-.338.194-.683.264-1.035.312-1.6-1.643-.98-1.643-.98s.217-.176.217-1.823c.016-.973-.039-2.405-.217-4.596-.32-3.883-2.634-4.834-2.836-5.416C39.67 16.996 36.523 16 34.24 16c-.567 0-1.08.062-1.498.164-2.096.513-4.776-.36-8.032 4.795z" mask="url(#prefix__b)"/>
    </g>
</svg>
