<?xml version="1.0" encoding="UTF-8"?>
<svg width="81px" height="30px" viewBox="0 0 81 30" version="1.1" xmlns="http://www.w3.org/2000/svg" xmlns:xlink="http://www.w3.org/1999/xlink">
    <!-- Generator: Sketch 61.2 (89653) - https://sketch.com -->
    <title>Bird</title>
    <desc>Created with Sketch.</desc>
    <g id="Interaction---Sidebar---Navigation" stroke="none" stroke-width="1" fill="none" fill-rule="evenodd">
        <g id="search" transform="translate(-386.000000, -282.000000)" fill="#000000">
            <g id="Side-Panel-2" transform="translate(29.000000, 75.000000)">
                <path d="M421.233733,232.976695 C419.795831,232.395895 420.109632,228.21449 421.172533,226.038287 C421.975334,224.394585 423.981436,221.508282 425.892739,222.563683 C427.09094,223.225184 428.356342,226.277987 426.414739,229.337691 C424.630637,232.193694 422.879835,233.641496 421.233733,232.976695 M405.775315,222.391783 C405.750715,222.490183 405.720415,222.594283 405.687415,222.701083 C405.577614,222.701983 405.475614,222.696283 405.382314,222.682783 C404.093513,222.496183 403.682512,220.788881 404.632913,220.21288 C405.583014,219.636879 406.173415,220.805981 405.775315,222.391783 M375.408079,229.974592 C372.910876,231.202193 369.647772,231.077393 370.749973,228.52799 C371.682074,226.372787 373.927277,227.580589 375.425179,229.545591 C375.500779,229.644891 375.576979,229.746591 375.653179,229.850091 C375.571279,229.892692 375.489679,229.934392 375.408079,229.974592 M360.560461,213.692972 C359.163959,212.22447 367.084569,205.886363 369.573672,207.170664 C372.50133,208.681326 366.276823,220.335006 360.248816,230.910154 L359.85606,231.598194 C359.79606,231.702594 359.83506,231.835494 359.94156,231.891894 L359.94156,231.891894 C360.03966,231.943794 360.15996,231.913494 360.21996,231.821094 C364.165865,225.771887 370.880773,214.303173 375.491179,210.367168 C378.862583,207.488965 382.455687,206.984364 384.518789,208.293866 C390.307655,211.967631 378.404641,218.90944 377.884383,219.209522 L377.871,219.217 L378.117139,219.126864 C385.568666,216.437129 387.956969,221.970659 383.503378,227.837612 L383.352388,228.033289 C382.375887,229.278891 381.414986,230.312092 380.478985,231.159893 C381.613286,232.314594 382.465587,233.172295 382.834287,233.172295 C387.096092,233.172295 390.522697,219.524079 395.533303,219.524079 C399.593507,219.524079 392.121098,233.176495 397.261005,233.176495 C401.121709,233.176495 403.544812,228.44729 404.786214,225.269686 C400.779709,224.669385 401.51351,219.86818 403.696912,218.487578 C406.228315,216.886776 408.403918,218.015677 407.741217,222.117582 C407.858217,222.063282 407.977917,222.005982 408.102717,221.942982 C412.292522,219.82648 413.489524,219.251979 414.625025,220.690481 C415.921027,222.331783 408.448318,231.844794 411.644522,233.054095 C413.692324,233.828996 415.616226,231.266693 416.734028,229.325091 C416.973128,227.714389 417.471429,226.143887 418.085229,224.950786 C419.907132,221.407781 422.437635,219.383379 425.170938,219.636579 C427.761741,219.87658 429.153743,221.654982 429.047242,224.218785 C429.324443,223.592984 429.601343,222.941983 429.877643,222.268482 C434.98965,209.817868 435.24285,208.299266 436.761152,208.805366 C438.279453,209.311467 437.925153,210.222568 435.09075,217.308277 C432.256646,224.393985 428.460742,231.778494 430.478544,233.195095 C431.859446,234.164397 433.218147,231.783294 434.129249,230.568892 C435.04035,229.354191 435.41385,228.50189 436.577851,229.210491 C437.742153,229.919092 436.356151,232.340094 435.14145,234.060896 C433.926748,235.781999 431.627546,237.630901 428.692042,236.7705 C427.08824,236.300699 426.71534,234.779397 426.73124,233.075695 C424.786937,235.638598 422.329034,237.716401 419.451731,236.733 C417.893229,236.200199 417.065228,234.830997 416.743028,233.148295 C414.366125,236.232899 411.382321,237.878401 408.750718,236.293799 C405.293814,234.212097 408.074217,228.86069 410.761021,224.078085 C409.250819,224.709585 407.970117,225.074686 406.890416,225.234586 C406.223215,227.178288 405.327114,229.386891 404.092013,231.244493 C401.58731,235.011898 398.056006,237.731701 394.842102,236.7153 C389.788596,235.117198 394.626101,222.784183 394.122101,222.784183 C392.811999,222.784183 388.407394,237 383.717188,237 C381.373586,237 379.529183,235.134898 377.951182,233.057395 C371.202374,237.0831 366.439568,231.606894 367.88917,228.24929 C370.203072,222.889483 374.373677,225.428386 377.753181,228.49199 C378.428782,227.957989 379.039883,227.361889 379.508183,226.737588 C381.591086,223.960484 380.654185,220.51738 377.175681,221.510982 C374.430677,222.295482 373.849877,221.036081 374.065877,220.04248 C374.281877,219.049179 375.620779,218.357978 378.687682,216.327875 C381.754286,214.297773 382.512387,211.84737 381.020185,211.101269 C378.860483,210.021568 374.814078,214.974574 370.869373,220.690481 C365.635867,228.27419 361.021261,238.556702 357.738357,236.6991 C353.574953,234.343497 368.45047,212.13807 366.809168,210.798869 C365.791267,209.968468 361.944062,215.147974 360.560461,213.692972 Z M397.001894,212.599831 C398.278696,212.599831 399.313997,213.635132 399.313997,214.911934 C399.313997,216.189035 398.278696,217.224036 397.001894,217.224036 C395.724793,217.224036 394.689792,216.189035 394.689792,214.911934 C394.689792,213.635132 395.724793,212.599831 397.001894,212.599831 Z" id="Bird"></path>
            </g>
        </g>
    </g>
</svg>