<svg xmlns="http://www.w3.org/2000/svg" width="24" height="24" viewBox="0 0 24 24">
    <path fill="#C3C3CC" fill-rule="evenodd" d="M8.834 5c.572 0 1.027.446 1.027 1.008s-.455 1.009-1.027 1.009h-2.78V17h2.763c.572 0 1.027.446 1.044.992 0 .562-.455 1.008-1.027 1.008H5.027A1.011 1.011 0 0 1 4 17.992V6.008C4 5.446 4.455 5 5.027 5zm6.03 2.975a1.03 1.03 0 0 1 1.448 0l3.385 3.323a.985.985 0 0 1 0 1.421l-3.385 3.322a1.016 1.016 0 0 1-.725.298c-.27 0-.522-.1-.724-.298a.985.985 0 0 1 0-1.421l1.634-1.603H9.288a1.011 1.011 0 0 1-1.027-1.009c0-.562.455-1.008 1.027-1.008h7.209l-1.634-1.603a.985.985 0 0 1 0-1.422z"/>
</svg>
