<?xml version="1.0" encoding="UTF-8"?>
<svg width="14px" height="20px" viewBox="0 0 14 20" version="1.1" xmlns="http://www.w3.org/2000/svg" xmlns:xlink="http://www.w3.org/1999/xlink">
    <!-- Generator: Sketch 56 (81588) - https://sketch.com -->
    <title>open_lock</title>
    <desc>Created with Sketch.</desc>
    <g id="Page-1" stroke="none" stroke-width="1" fill="none" fill-rule="evenodd">
        <g id="dashboard_concept_2" transform="translate(-1416.000000, -345.000000)" fill="#6BC11A">
            <path d="M1428,353 C1429.10457,353 1430,353.895431 1430,355 L1430,363 C1430,364.104569 1429.10457,365 1428,365 L1418,365 C1416.89543,365 1416,364.104569 1416,363 L1416,355 C1416,353.895431 1416.89543,353 1418,353 L1418,349 C1418,346.790861 1419.79086,345 1422,345 L1424,345 C1426.20914,345 1428,346.790861 1428,349 L1428,350 L1426,350 L1426,353 L1428,353 Z M1423.84649,359.820312 C1424.5287,359.515625 1425.02272,358.8125 1424.99919,357.992188 C1424.99919,356.890625 1424.10526,356 1422.9996,356 C1421.89394,356 1421,356.890625 1421,357.992188 C1421,358.8125 1421.49402,359.515625 1422.17623,359.820312 L1422.17623,361.179688 C1422.17623,361.625 1422.57615,362 1423.02312,362 C1423.47009,362 1423.84649,361.648438 1423.84649,361.179688 L1423.84649,359.820312 Z M1422,347 C1420.89543,347 1420,347.895431 1420,349 L1420,353 L1426,353 L1426,349 C1426,347.895431 1425.10457,347 1424,347 L1422,347 Z" id="open_lock"></path>
        </g>
    </g>
</svg>