<svg xmlns="http://www.w3.org/2000/svg" width="14" height="18" viewBox="0 0 14 18">
    <path fill="#F00" fill-rule="nonzero" d="M13.978 8.945c0-1.968-.087-2.056-2.006-2.121 0-.875 0-1.969-.022-2.647C11.842 1.597 10.268.044 7.744 0H6.428c-2.804.022-4.443 1.75-4.4 4.571v2.275h-.474C.303 6.846.022 7.152.022 8.42c0 2.69.022 5.38-.021 8.07C-.021 17.52.389 18 1.403 18H12.64c.95 0 1.38-.437 1.36-1.422-.044-2.537-.022-5.074-.022-7.633zM7.766 12.86v1.269a.755.755 0 0 1-.755.765c-.41 0-.777-.35-.777-.765V12.86a1.874 1.874 0 0 1-1.078-1.706c0-1.028.82-1.859 1.833-1.859 1.014 0 1.834.831 1.834 1.86a1.82 1.82 0 0 1-1.057 1.705zM9.62 6.824c-1.747 0-3.473.022-5.22.022v-1.86c.021-.13.021-.262.021-.371-.021-1.597.863-2.253 2.804-2.21 1.597.023 2.395.788 2.395 2.32v2.099z"/>
</svg>
