<svg width="145" height="145" viewBox="0 0 145 145" fill="none" xmlns="http://www.w3.org/2000/svg">
<path d="M145 72.5C145 112.541 112.541 145 72.5 145C32.4588 145 0 112.541 0 72.5C0 32.4588 32.4588 0 72.5 0C112.541 0 145 32.4588 145 72.5Z" fill="#BED6EE"/>
<path d="M144.986 73.5907L131.868 60.4727L130.573 60.2315L117.166 46.8546L113.2 54.1515L82.8428 23.7923L78.0383 23.4804L67.2589 12.4697L63.0451 23.0544L51.6761 23.7923L60.139 32.253L57.6278 42.112L83.7577 68.1756C83.0862 68.3835 82.4025 68.6081 81.7078 68.8515C80.2873 69.3493 78.7762 69.9445 77.1976 70.6558L52.5777 46.0359L51.9825 47.7728L43.805 39.7103L37.0956 42.5977L31.6074 37.7788L32.2811 45.0514L26.002 48.7806L45.0463 67.9897L28.3539 116.646L54.4395 142.732C60.2131 144.212 66.2655 145 72.5004 145C112.176 145 144.403 113.127 144.986 73.5907Z" fill="#9DCAF7"/>
<path d="M56.3473 100.591L49.0957 96.164C59.291 79.4649 72.4578 72.0939 81.7072 68.8503C91.835 65.3003 99.6076 65.7749 99.9329 65.7971L99.3632 74.2732L99.6486 70.0352L99.3786 74.2744C99.3134 74.271 92.7134 73.9203 84.1498 76.9991C72.7575 81.0945 63.4041 89.033 56.3473 100.591Z" fill="#00D6D6"/>
<path d="M131.87 60.4726L120.215 58.3087L117.166 46.8545L111.507 57.2688L99.6719 56.6294L107.827 65.2295L103.561 76.2888L114.261 71.1889L123.461 78.664L121.918 66.9121L131.87 60.4726Z" fill="#FCD842"/>
<path d="M28.3535 116.647L52.5773 46.0361L98.964 92.4228L28.3535 116.647Z" fill="#FFAA20"/>
<path d="M98.9649 92.4226L75.7721 69.2288L28.3555 116.645L98.9649 92.4226Z" fill="#FF8900"/>
<path d="M76.4831 69.9425L49.237 55.7712L46.4492 63.8978L96.439 89.8983L76.4831 69.9425Z" fill="white"/>
<path d="M86.2466 96.786L42.9011 74.2415L40.1133 82.3681L75.1519 100.592L86.2466 96.786Z" fill="white"/>
<path d="M33.7773 100.837L49.9365 109.242L61.0312 105.436L36.5651 92.7104L33.7773 100.837Z" fill="white"/>
<path d="M76.4844 69.9425L75.5463 69.4546L69.2461 75.7548L96.4402 89.8983L76.4844 69.9425Z" fill="#FFF5CB"/>
<path d="M61.2279 83.7729L54.9277 90.0731L75.1524 100.591L86.2471 96.7859L61.2279 83.7729Z" fill="#FFF5CB"/>
<path d="M40.6094 104.39L49.9352 109.241L61.031 105.436L46.9084 98.0911L40.6094 104.39Z" fill="#FFF5CB"/>
<path d="M82.8698 103.714L88.9344 106.325L93.896 101.968L93.2875 108.542L98.9649 111.915L92.5231 113.368L91.0706 119.809L87.6987 114.132L81.123 114.74L85.4806 109.779L82.8698 103.714Z" fill="#00F8FE"/>
<path d="M67.2586 12.4697L71.4734 23.0544L82.8425 23.7923L74.0787 31.0715L76.8908 42.112L67.2586 36.0265L57.6275 42.112L60.4396 31.0715L51.6758 23.7923L63.0448 23.0544L67.2586 12.4697Z" fill="#FF738E"/>
<path d="M43.805 39.7105L40.9177 46.4188L45.7366 51.907L38.464 51.2333L34.7337 57.5124L33.1263 50.3881L26.002 48.7807L32.2811 45.0504L31.6085 37.7778L37.0956 42.5978L43.805 39.7105Z" fill="#FFDB2D"/>
<path d="M75.959 55.8198L84.9297 37.614L92.5507 41.3687L83.5789 59.5744L75.959 55.8198Z" fill="#FFF5CB"/>
<path d="M102.188 98.3922L102.297 89.8972L122.591 90.1572L122.482 98.6522L102.188 98.3922Z" fill="#FF3C62"/>
</svg>
