<svg width="48" height="48" viewBox="0 0 48 48" fill="none" xmlns="http://www.w3.org/2000/svg">
<circle cx="24" cy="24" r="20" fill="black"/>
<path d="M32.9785 15H14.0215C12.9082 15 12 15.9072 12 17.0215V30.498C12 31.6085 12.9042 32.5195 14.0215 32.5195H32.9785C34.089 32.5195 35 31.6153 35 30.498V17.0215C35 15.911 34.0958 15 32.9785 15ZM32.6994 16.3477L23.5429 25.5042L14.3071 16.3477H32.6994ZM13.3477 30.219V17.2941L19.8379 23.7287L13.3477 30.219ZM14.3006 31.1719L20.7949 24.6775L23.0705 26.9336C23.334 27.1948 23.7591 27.1939 24.0214 26.9315L26.2402 24.7127L32.6994 31.1719H14.3006ZM33.6523 30.2189L27.1932 23.7598L33.6523 17.3005V30.2189Z" fill="white"/>
</svg>
