<svg xmlns="http://www.w3.org/2000/svg" viewBox="0 0 141.2 141.2">
  <g fill="#a0a0a0">
    <path
      d="M52.9 62.84c0,-5.62 8.54,-5.62 8.54,0l0 44.76c0,5.62 -8.54,5.62 -8.54,0l0 -44.76zm26.85 0c0,-5.62 8.54,-5.62 8.54,0l0 44.76c0,5.62 -8.54,5.62 -8.54,0l0 -44.76zm-43.32 -19.94l68.33 0c2.36,0 4.27,1.91 4.27,4.27l0 76.09c0,2.36 -1.91,4.27 -4.27,4.27l-68.33 0c-2.36,0 -4.27,-1.91 -4.27,-4.27l0 -76.09c0,-2.36 1.91,-4.27 4.27,-4.27zm64.06 8.54l-59.79 0 0 67.55 59.79 0 0 -67.55zm-45.41 -37.78l31.03 0c5.78,0 4.27,7.97 4.27,14.92l23.18 0c5.62,0 5.62,8.54 0,8.54l-85.94 0c-5.62,0 -5.62,-8.54 0,-8.54l23.18 0c0,-6.94 -1.51,-14.92 4.27,-14.92zm26.76 8.54l-22.49 0 0 6.38 22.49 0 0 -6.38z"/>
  </g>
</svg>
