<svg xmlns="http://www.w3.org/2000/svg" viewBox="0 0 52.64 52.64">
  <path
    d="M10.93 9.18l30.78 0c3.2,0 5.84,2.62 5.84,5.84l0 22.62c0,3.22 -2.64,5.84 -5.84,5.84l-30.78 0c-3.2,0 -5.84,-2.62 -5.84,-5.84l0 -22.62c0,-3.22 2.64,-5.84 5.84,-5.84zm26.97 3.18l-23.16 0 11.58 11.7 11.58 -11.7zm5.68 0.77c-0.34,-0.34 -0.79,-0.6 -1.28,-0.71l-14.86 15.02c-0.62,0.62 -1.63,0.62 -2.24,-0.01l-14.86 -15.01c-1.19,0.27 -2.06,1.35 -2.06,2.59l0 22.62c0,0.73 0.3,1.39 0.78,1.87 0,0.15 0.95,0.78 1.87,0.78l30.78 0c1.47,0 2.65,-1.21 2.65,-2.65l0 -22.62c0,-0.73 -0.3,-1.39 -0.78,-1.87l0 -0.01z"/>
</svg>
