<svg xmlns="http://www.w3.org/2000/svg" viewBox="0 0 125.95 125.95">
  <path style="fill: currentColor"
    d="M76.49 82.34c-0.47,0.41 -1.06,0.63 -1.68,0.63 -1.41,0 -2.55,-1.14 -2.55,-2.55 0,-4.42 0.04,-8.85 0.05,-13.27 0,-1.41 -1.13,-2.55 -2.54,-2.56l-41 -0.17c-1.4,-0.01 -2.54,-1.14 -2.54,-2.55 0,-9.12 0.07,-18.24 0.11,-27.36 0.01,-1.4 1.15,-2.53 2.55,-2.53 13.67,0 27.35,0.11 41.01,0.17 0.17,-0.17 2.55,-0.09 2.56,-2.54l0.05 -13.25c0.01,-1.4 1.15,-2.54 2.55,-2.54 0.62,0 1.23,0.23 1.69,0.64l36.16 32.17c0.55,0.48 0.86,1.18 0.86,1.91 0,0.74 -0.32,1.44 -0.87,1.92l-36.43 31.87z"/>
  <path
    d="M49.46 111.49c0.47,0.41 1.06,0.63 1.68,0.63 1.41,0 2.55,-1.14 2.55,-2.55 0,-4.42 -0.04,-8.85 -0.05,-13.27 0,-1.41 1.13,-2.55 2.54,-2.56l41 -0.17c1.4,-0.01 2.54,-1.14 2.54,-2.55 0,-9.12 -0.07,-18.24 -0.11,-27.36 -0.01,-1.4 -1.15,-2.53 -2.55,-2.53 -13.67,0 -27.35,0.11 -41.01,0.17 -0.17,-0.17 -2.55,-0.09 -2.56,-2.54l-0.05 -13.25c-0.01,-1.4 -1.15,-2.54 -2.55,-2.54 -0.62,0 -1.23,0.23 -1.69,0.64l-36.16 32.17c-0.55,0.48 -0.86,1.18 -0.86,1.91 0,0.74 0.32,1.44 0.87,1.92l36.43 31.87z"/>
</svg>
