<svg xmlns="http://www.w3.org/2000/svg" viewBox="0 0 172.12 172.12">
  <path
    d="M138.97 112.44c4.11,-8.18 6.26,-17.22 6.26,-26.38 0,-32.68 -26.49,-59.17 -59.17,-59.17 -32.68,0 -59.17,26.49 -59.17,59.17 0,32.68 26.49,59.17 59.17,59.17 10.45,0 20.25,-2.73 28.77,-7.48l29.2 5.06 -5.06 -30.36 -0 0z"/>
  <path style="fill: currentColor"
    d="M80.36 120.87l11.31 0 0 -48.28 -11.31 0 0 48.28zm5.7 -56.73c-2.03,0 -3.7,-0.59 -5.01,-1.77 -1.31,-1.18 -1.96,-2.72 -1.96,-4.63 0,-1.9 0.65,-3.45 1.96,-4.66 1.31,-1.22 2.98,-1.82 5.01,-1.82 2.03,0 3.7,0.61 5.02,1.83 1.31,1.21 1.96,2.76 1.96,4.66 0,1.91 -0.65,3.44 -1.96,4.63 -1.32,1.18 -2.99,1.78 -5.02,1.78l0 -0.01z"/>
</svg>
