<svg xmlns="http://www.w3.org/2000/svg" viewBox="0 0 64.72 64.72" style="fill-rule:evenodd; clip-rule:evenodd">
  <path
    d="M34.92 20.29c-0.67,0.6 -1.52,0.91 -2.56,0.91 -1.03,0 -1.88,-0.3 -2.55,-0.91 -0.67,-0.6 -1,-1.38 -1,-2.35 0,-0.97 0.33,-1.76 1,-2.38 0.67,-0.62 1.52,-0.93 2.55,-0.93 1.04,0 1.89,0.31 2.56,0.93 0.67,0.62 1,1.41 1,2.38 0,0.97 -0.33,1.75 -1,2.35zm-5.46 29.8l5.76 0 0 -24.59 -5.76 0 0 24.59zm2.91 -43.83c-14.41,0 -26.1,11.68 -26.1,26.1 0,14.41 11.68,26.1 26.1,26.1 14.41,0 26.1,-11.68 26.1,-26.1 0,-14.41 -11.68,-26.1 -26.1,-26.1z"/>
</svg>
