<svg xmlns="http://www.w3.org/2000/svg" viewBox="0 0 2332.6 2332.6">
  <path
    d="M2029.04 1108.15c28.71,27.61 29.08,73.16 -0.02,101.71l-409.26 409.22c-65.65,65.65 -165.39,-34.09 -99.74,-99.74l289.82 -289.81 -736.35 0c-92.87,0 -92.87,-141.08 0,-141.08l736.37 0 -275.25 -275.23c-65.65,-65.65 34.09,-165.39 99.74,-99.74l394.68 394.66zm-305.01 561.37c0,-92.87 141.08,-92.87 141.08,0 0,146.11 21.39,265.37 -75.15,362.19 -46.14,46.41 -110.06,75.15 -180.4,75.15l-1072.13 0c-140.29,0 -255.53,-115.24 -255.53,-255.53l0 -1370.06c0,-140.31 115.26,-255.53 255.53,-255.53l1072.13 0c141.54,0 253.71,116.52 255.29,255.53l0.26 0c0,110.35 24.27,239.28 -70.54,239.28 -94.81,0 -70.54,-128.93 -70.54,-239.28l0.23 0c-2.31,-61.95 -51.51,-114.45 -114.69,-114.45l-1072.13 0c-63.17,0 -114.45,51.28 -114.45,114.45l0 1370.06c0,63.17 51.28,114.45 114.45,114.45l1072.13 0c31.41,0 60.03,-12.9 80.79,-33.67l0.26 0c50.51,-50.51 33.41,-161.96 33.41,-262.59z"/>
</svg>
