<svg xmlns="http://www.w3.org/2000/svg" viewBox="0 0 239 239">
  <path
    d="M119.5 40.92c-23.61,23.17 -53.46,26.22 -67.54,26.23l0 52.35 67.54 0 0 81.61c18.64,-9.28 41.07,-18.61 53.72,-35.87 13.91,-19 13.82,-45.6 13.82,-45.74l-67.54 0 0 -78.57zm-73.95 11.5c0.12,0.01 41.24,5.26 68.41,-26.68 2.88,-3.42 8.14,-3.47 11.04,-0.04 27.17,31.98 68.32,26.74 68.44,26.72l0 0.02c4.69,-0.27 8.02,2.97 8.02,7.15l-0 59.9 0.03 0c0,0.09 0.13,31.36 -16.64,54.27 -12.31,16.81 -56.32,44.9 -67.3,41.82 -20.95,-5.88 -51.39,-25.4 -63.41,-41.82 -16.77,-22.91 -16.64,-54.18 -16.64,-54.27l0.06 -60.72c0.45,-3.96 4.03,-6.8 7.99,-6.35z"/>
</svg>
