<svg xmlns="http://www.w3.org/2000/svg" viewBox="0 0 111.61 111.61">
  <path
    d="M60.27 93.81c2.28,-1.29 -0.29,-7.86 6.77,-10.83 7.17,-3.02 10.45,3.89 12.39,2.92 0,-0 7.84,-6.29 6.4,-7.73 -7.11,-7.11 -3.07,-16.99 7.04,-16.99 1.74,0 1.72,-10.81 0,-10.81 -10.13,0 -14.14,-9.88 -7.04,-16.99 1.21,-1.21 -6.42,-8.82 -7.64,-7.65 -7.63,7.33 -16.99,2.67 -16.99,-7.04 0,-1.74 -9.91,-1.44 -10.7,-0.36 -0.01,0.02 -0.73,13.36 -11.64,10.61 -6.98,-1.76 -3.81,-6.6 -10.28,-0.06l0.01 0.01c-6.24,6.3 -1.43,2.62 0.56,10.09 2.86,10.75 -10.78,11.48 -10.82,11.51 -1.06,0.83 -1.39,10.68 0.39,10.68 10.09,0 14.17,9.86 7.04,16.99 -1.24,1.24 6.42,8.87 7.64,7.64 7.16,-7.16 16.99,-3.41 16.99,7.04 0,1.94 8.46,1.12 9.87,0.95zm6.11 3.52c-3.59,4.55 -11.52,3.85 -17.02,3.01 -6.04,-0.92 -5.63,-9.23 -6.35,-10.46 -2.44,-4.2 -5.49,5.19 -13.54,2.25 -0.78,-0.28 -16.45,-10.75 -8.48,-18.72 2.92,-2.92 1.77,-5.47 -2.27,-5.47 -11.36,0 -7.49,-18.71 -7.19,-19.32 3.72,-7.71 12.37,-3.18 11.11,-7.91 -0.7,-2.65 -5.24,-4.13 -3.51,-10.59l4.67 -5.96 0.01 0c3.01,-3.04 5.57,-5.81 10.16,-5.22 1.58,0.2 3.03,0.85 4.21,2.03 0,0.65 5.47,4.06 5.47,-2.26 0,-11.39 18.8,-7.44 19.39,-7.15 7.58,3.72 3.09,12.22 7.97,10.96 3.94,-1.02 7.21,-11.05 20.61,6.06 1.64,2.1 1.72,6.85 -1.01,9.58 -2.93,2.93 -1.76,5.47 2.26,5.47 11.33,0 7.5,18.67 7.2,19.29 -3.74,7.8 -12.29,3.11 -11.01,8.07 1.01,3.91 8.96,6.2 -1.43,16.61 -10.4,10.41 -12.61,2.53 -16.55,1.52 -4.03,-1.03 -2.19,5.01 -4.7,8.21zm-10.58 -61.12c17.34,0 26.19,21.1 13.85,33.44 -12.34,12.34 -33.44,3.49 -33.44,-13.85 0,-10.8 8.79,-19.59 19.59,-19.59zm9.08 10.5c-8.02,-8.02 -21.92,-2.38 -21.92,9.09 0,16.76 25.68,17 25.68,0 0,-3.55 -1.44,-6.76 -3.76,-9.08l0 -0.01z"/>
</svg>
