<svg xmlns="http://www.w3.org/2000/svg" viewBox="0 0 92.27 92.27">
  <path
    d="M51.01 83.02c1.75,-0.81 2.97,-2.08 2.97,-3.77 0,-6.1 5.55,-8.64 10.03,-4.16 1.21,1.21 2.9,1.28 4.63,0.66 2.69,-2.05 5.09,-4.45 7.13,-7.14 0.62,-1.73 0.54,-3.41 -0.67,-4.62 -4.48,-4.48 -2.19,-10.04 4.16,-10.04 1.7,0 2.94,-1.12 3.73,-2.77 0.46,-3.37 0.46,-6.81 -0.01,-10.18 -0.79,-1.63 -2.03,-2.75 -3.72,-2.75 -6.34,0 -8.64,-5.55 -4.16,-10.03 1.19,-1.19 1.28,-2.84 0.69,-4.55 -2.07,-2.74 -4.52,-5.18 -7.26,-7.25 -1.7,-0.58 -3.35,-0.49 -4.54,0.7 -4.48,4.48 -10.03,2.19 -10.03,-4.16 0,-1.67 -1.09,-2.91 -2.7,-3.7 -3.41,-0.47 -6.88,-0.47 -10.3,0 -1.61,0.79 -2.7,2.02 -2.7,3.7 0,6.35 -5.73,8.47 -10.03,4.16 -1.18,-1.18 -2.89,-1.23 -4.66,-0.6 -2.76,2.11 -5.22,4.59 -7.3,7.38 -0.48,1.59 -0.31,3.14 0.87,4.32 4.72,4.72 2.19,10.03 -4.16,10.03 -1.69,0 -2.93,1.11 -3.72,2.75 -0.46,3.37 -0.47,6.81 -0.01,10.18 0.79,1.64 2.03,2.77 3.73,2.77 6.34,0 8.64,5.55 4.16,10.04 -1.21,1.2 -1.28,2.89 -0.67,4.62 2.04,2.69 4.44,5.09 7.13,7.14 1.74,0.62 3.42,0.55 4.63,-0.66 4.48,-4.48 10.03,-2.53 10.03,4.16 0,5.53 9.25,4.23 12.72,3.77zm-4.88 -51.38c8,0 14.49,6.49 14.49,14.49 0,8 -6.49,14.49 -14.49,14.49 -8,0 -14.49,-6.49 -14.49,-14.49 0,-8 6.49,-14.49 14.49,-14.49z"/>
</svg>
