<svg xmlns="http://www.w3.org/2000/svg" viewBox="0 0 164.96 164.96">
  <path style="fill: currentColor"
    d="M111.87 61.96l-7.03 0c-20.2,0 -36.58,16.38 -36.58,36.58 0,3.68 2.99,6.67 6.67,6.67l66.87 0c3.68,-0 6.67,-2.99 6.67,-6.67 0,-20.2 -16.39,-36.58 -36.59,-36.58zm-3.44 -45.97c12.1,0 21.91,9.81 21.91,21.91 0,12.1 -9.81,21.91 -21.91,21.91 -12.1,0 -21.91,-9.81 -21.91,-21.91 0,-12.1 9.81,-21.91 21.91,-21.91z"/>
  <path
    d="M71.38 93.17l-6.25 0c-26.85,0 -48.62,21.77 -48.62,48.62 -0,3.97 3.21,7.19 7.19,7.19l89.1 0c3.97,0 7.2,-3.22 7.2,-7.19 -0,-26.85 -21.78,-48.62 -48.62,-48.62zm25.33 -31.41c0,15.72 -12.74,28.46 -28.46,28.46 -15.72,0 -28.46,-12.74 -28.46,-28.46 0,-15.72 12.74,-28.46 28.46,-28.46 15.71,0 28.46,12.74 28.46,28.46z"/>
</svg>