<?xml version="1.0" encoding="UTF-8"?>
<svg width="20px" height="20px" viewBox="0 0 20 20" version="1.1" xmlns="http://www.w3.org/2000/svg" xmlns:xlink="http://www.w3.org/1999/xlink">
    <title>Connection</title>
    <g id="Page-1" stroke="none" stroke-width="1" fill="none" fill-rule="evenodd">
        <g id="Sync-with-Strava-Success" transform="translate(-178.000000, -233.000000)" fill="#417F00" fill-rule="nonzero">
            <g id="Connection" transform="translate(188.000000, 243.000000) rotate(-270.000000) translate(-188.000000, -243.000000) translate(178.000000, 233.000000)">
                <path d="M18.5,6.5 L16.9,8.1 C16.6,3.6 12.9,0 8.3,0 L8,0 L8,2 L8.3,2 C11.7,2 14.6,4.7 14.8,8.1 L13.2,6.5 L11.8,7.9 L15.8,11.9 L19.8,7.9 L18.5,6.5 Z" id="Path"></path>
                <path d="M5.2,11.9 L6.8,13.5 L8.2,12.1 L4.2,8.1 L0.2,12.1 L1.6,13.5 L3.2,11.9 C3.4,16.4 7.1,20 11.7,20 L12,20 L12,18 L11.7,18 C8.2,18 5.4,15.3 5.2,11.9 Z" id="Path"></path>
            </g>
        </g>
    </g>
</svg>