<?xml version="1.0" encoding="UTF-8"?>
<svg width="14px" height="20px" viewBox="0 0 14 20" version="1.1" xmlns="http://www.w3.org/2000/svg" xmlns:xlink="http://www.w3.org/1999/xlink">
    <!-- Generator: Sketch 56 (81588) - https://sketch.com -->
    <title>close_lock</title>
    <desc>Created with Sketch.</desc>
    <g id="Page-1" stroke="none" stroke-width="1" fill="none" fill-rule="evenodd">
        <g id="dashboard_concept_2" transform="translate(-1396.000000, -345.000000)" fill="#FF0000">
            <path d="M1398,353 L1398,349 C1398,346.790861 1399.79086,345 1402,345 L1404,345 C1406.20914,345 1408,346.790861 1408,349 L1408,353 C1409.10457,353 1410,353.895431 1410,355 L1410,363 C1410,364.104569 1409.10457,365 1408,365 L1398,365 C1396.89543,365 1396,364.104569 1396,363 L1396,355 C1396,353.895431 1396.89543,353 1398,353 Z M1400,353 L1406,353 L1406,349 C1406,347.895431 1405.10457,347 1404,347 L1402,347 C1400.89543,347 1400,347.895431 1400,349 L1400,353 Z M1403.84649,359.820312 C1404.5287,359.515625 1405.02272,358.8125 1404.99919,357.992188 C1404.99919,356.890625 1404.10526,356 1402.9996,356 C1401.89394,356 1401,356.890625 1401,357.992188 C1401,358.8125 1401.49402,359.515625 1402.17623,359.820312 L1402.17623,361.179688 C1402.17623,361.625 1402.57615,362 1403.02312,362 C1403.47009,362 1403.84649,361.648438 1403.84649,361.179688 L1403.84649,359.820312 Z" id="close_lock"></path>
        </g>
    </g>
</svg>