<svg xmlns="http://www.w3.org/2000/svg" width="495" height="359" viewBox="0 0 495 359">
    <defs>
        <linearGradient id="djyquh37na" x1="3.779%" x2="115.116%" y1="146.182%" y2="-86.938%">
            <stop offset="36%" stop-color="#00272E"/>
            <stop offset="75%" stop-color="#3F80A1" stop-opacity=".25"/>
            <stop offset="100%" stop-color="#69B9EB" stop-opacity="0"/>
        </linearGradient>
        <linearGradient id="si13xmt3xb" x1="60.712%" x2="33.176%" y1="21.321%" y2="98.026%">
            <stop offset="0%" stop-opacity="0"/>
            <stop offset="91%" stop-opacity=".8"/>
            <stop offset="100%"/>
        </linearGradient>
        <linearGradient id="4a5zhnl32c" x1="55.251%" x2="29.015%" y1="48.983%" y2="54.064%">
            <stop offset="0%" stop-opacity="0"/>
            <stop offset="91%" stop-opacity=".8"/>
            <stop offset="100%"/>
        </linearGradient>
        <linearGradient id="pwhpj9e5ad" x1="57.641%" x2="31.405%" y1="48.52%" y2="53.602%">
            <stop offset="0%" stop-opacity="0"/>
            <stop offset="91%" stop-opacity=".8"/>
            <stop offset="100%"/>
        </linearGradient>
        <linearGradient id="lbpxu5y22e" x1="61.862%" x2="29.364%" y1="47.029%" y2="54.825%">
            <stop offset="0%" stop-opacity="0"/>
            <stop offset="91%" stop-opacity=".8"/>
            <stop offset="100%"/>
        </linearGradient>
        <linearGradient id="87wucz9nsf" x1=".033%" x2="100.048%" y1="49.998%" y2="49.998%">
            <stop offset="0%" stop-color="#ECC4D7"/>
            <stop offset="42%" stop-color="#EFD4D1"/>
            <stop offset="100%" stop-color="#F2EAC9"/>
        </linearGradient>
        <linearGradient id="0n12zuv8pg" x1="52.022%" x2="35.335%" y1="1429.623%" y2="1216.871%">
            <stop offset="0%" stop-color="#ECC4D7"/>
            <stop offset="42%" stop-color="#EFD4D1"/>
            <stop offset="100%" stop-color="#F2EAC9"/>
        </linearGradient>
        <linearGradient id="th12xai18h" x1=".741%" x2="100.747%" y1="691.414%" y2="691.414%">
            <stop offset="0%" stop-color="#ECC4D7"/>
            <stop offset="42%" stop-color="#EFD4D1"/>
            <stop offset="100%" stop-color="#F2EAC9"/>
        </linearGradient>
        <linearGradient id="jz5a9ny7vi" x1=".554%" x2="100.559%" y1="619.33%" y2="619.33%">
            <stop offset="0%" stop-color="#ECC4D7"/>
            <stop offset="42%" stop-color="#EFD4D1"/>
            <stop offset="100%" stop-color="#F2EAC9"/>
        </linearGradient>
        <linearGradient id="jrtn226t6j" x1="67.401%" x2="21.082%" y1="2061.185%" y2="2265.949%">
            <stop offset="0%" stop-color="#ECC4D7"/>
            <stop offset="42%" stop-color="#EFD4D1"/>
            <stop offset="100%" stop-color="#F2EAC9"/>
        </linearGradient>
        <linearGradient id="h2jp74jutk" x1="58.381%" x2="40.726%" y1="71.893%" y2="34.863%">
            <stop offset="0%" stop-color="#ECC4D7"/>
            <stop offset="42%" stop-color="#EFD4D1"/>
            <stop offset="100%" stop-color="#F2EAC9"/>
        </linearGradient>
        <linearGradient id="7mzrbgmyql" x1="-25.592%" x2="213.647%" y1="118.867%" y2="-77.304%">
            <stop offset="0%" stop-color="#ECC4D7"/>
            <stop offset="42%" stop-color="#EFD4D1"/>
            <stop offset="100%" stop-color="#F2EAC9"/>
        </linearGradient>
        <linearGradient id="s33sv9irum" x1="42.645%" x2="56.115%" y1="40.272%" y2="59.614%">
            <stop offset="0%" stop-color="#68E1FD"/>
            <stop offset="1%" stop-color="#67DDF9"/>
            <stop offset="12%" stop-color="#5CB3CE"/>
            <stop offset="24%" stop-color="#538EA9"/>
            <stop offset="37%" stop-color="#4C718B"/>
            <stop offset="50%" stop-color="#465A73"/>
            <stop offset="63%" stop-color="#424A63"/>
            <stop offset="79%" stop-color="#404059"/>
            <stop offset="99%" stop-color="#3F3D56"/>
        </linearGradient>
        <linearGradient id="kh1b80bshn" x1="37.533%" x2="65.541%" y1="-485.473%" y2="-510.167%">
            <stop offset="0%" stop-color="#68E1FD"/>
            <stop offset="1%" stop-color="#67DDF9"/>
            <stop offset="12%" stop-color="#5CB3CE"/>
            <stop offset="24%" stop-color="#538EA9"/>
            <stop offset="37%" stop-color="#4C718B"/>
            <stop offset="50%" stop-color="#465A73"/>
            <stop offset="63%" stop-color="#424A63"/>
            <stop offset="79%" stop-color="#404059"/>
            <stop offset="99%" stop-color="#3F3D56"/>
        </linearGradient>
        <linearGradient id="z8x4juohwo" x1="34.545%" x2="89.322%" y1="-6.978%" y2="193.427%">
            <stop offset="0%" stop-opacity="0"/>
            <stop offset="91%" stop-opacity=".8"/>
            <stop offset="100%"/>
        </linearGradient>
    </defs>
    <g fill="none">
        <path fill="#68E1FD" d="M78.78 75c-14.604 3.096-29.784 6.456-41.508 15.702-9.9 7.8-25.326 22.2-30 33.9-19.8 49.422 2.586 109.56 46.038 140.316 20.436 14.466 45.906 21.468 64.272 38.496 11.616 10.77 19.752 25.026 32.112 34.926 18.06 14.454 42.444 17.652 65.52 19.2 16.032 1.086 32.688 1.554 47.562-4.542 10.752-4.404 19.86-11.958 28.8-19.404l59.226-49.458c9.516-7.938 18.414-20.58 30.804-20.496 111.516.798 119.034-130.44-52.116-188.568-15.084-5.124-25.428-19.368-39.6-26.67-29.274-15.09-62.964-10.2-92.49.24C159.912 61.932 117.684 66.726 78.78 75z" opacity=".18"/>
        <path fill="#000405" d="M467.442 286.716c4.668.078 10.68 1.242 11.4 5.85.39 2.4-.984 4.734-2.472 6.672-9.306 12.162-24.726 18.312-39.942 19.962-15.216 1.65-30.552-.66-45.744-2.532-21.956-2.712-43.996-4.512-66.12-5.4-15.732-.636-32.28-1.032-45.828-9.048-2.514-1.482-4.986-3.336-6.192-6-2.4-5.298 1.392-11.748 6.6-14.322s11.328-2.322 17.136-2.01c57.036 3.072 114.03 6.828 171.162 6.828z" opacity=".05"/>
        <path fill="#68E1FD" d="M467.64 75.84s-20.298 26.25-24.15 30.648c-7.026 7.992-11.556 18.474-11.556 18.474l-10.2 43.404-11.4-3.042-24.786-6.6S394.356 135 390.09 127.8c-5.688-9.6-.768-15.6.528-19.722 2.4-7.638-9.858-21.6-9.858-21.6L372.906 51.3l11.856-1.584 8.604 28.518 14.742 13.158 10.5.558s7.92 1.632 13.68-1.032c5.508-2.556 24.966-24.498 24.966-24.498l7.938 7.2 2.448 2.22zM370.398 120.354V276.69c0 3.956-1.575 7.75-4.373 10.545-2.798 2.797-6.593 4.365-10.549 4.365H121.662c-8.238 0-14.916-6.678-14.916-14.916v-156.33c-.003-8.233 6.665-14.912 14.898-14.922h233.832c3.958 0 7.754 1.57 10.553 4.369 2.799 2.799 4.369 6.595 4.369 10.553z"/>
        <path fill="#68E1FD" d="M366.354 110.202H110.4l2.076-1.59c.096-.083.196-.161.3-.234l121.752-93.336 3.846-2.946 123.882 94.968 4.098 3.138z"/>
        <path fill="#68E1FD" d="M370.398 120.354l-3.114 2.25-22.674 16.422-110.082 79.734-105.87-81.534-21.912-16.872.282-2.898c.533-2.717 1.818-5.23 3.708-7.254.53-.577 1.108-1.11 1.728-1.59.096-.083.196-.161.3-.234 2.57-1.919 5.691-2.952 8.898-2.946h233.814c7.68.007 14.103 5.838 14.85 13.482.048.48.072.96.072 1.44z"/>
        <path fill="url(#djyquh37na)" d="M112.464 108.6c-.617.484-1.195 1.016-1.728 1.59h-.336l2.064-1.59z" opacity=".61"/>
        <path fill="url(#si13xmt3xb)" d="M370.398 120.354l-3.114 2.256-22.674 16.416-110.082 79.734-105.87-81.528-21.912-16.878.282-2.892c.694-3.51 2.622-6.653 5.436-8.862l.3-.228 121.764-93.33 3.846-2.946 123.882 94.968c4.54 2.312 7.584 6.784 8.07 11.856.048.476.072.955.072 1.434z"/>
        <path fill="#FFF" d="M344.61 108.804v30.228l-40.626 29.4-9.318 6.768-60.138 43.56-56.562-43.56-8.766-6.744-40.554-31.2v-28.452c0-2.35.934-4.604 2.596-6.266s3.916-2.596 6.266-2.596h198.246c4.89.007 8.853 3.971 8.856 8.862z"/>
        <path fill="url(#4a5zhnl32c)" d="M314.838 135.306h-160.2c-.894 0-1.752-.355-2.384-.988-.633-.632-.988-1.49-.988-2.384 0-.894.355-1.752.988-2.384.632-.633 1.49-.988 2.384-.988h160.2c1.862 0 3.372 1.51 3.372 3.372 0 1.862-1.51 3.372-3.372 3.372z"/>
        <path fill="url(#pwhpj9e5ad)" d="M314.838 155.256h-160.2c-.894 0-1.752-.355-2.384-.988-.633-.632-.988-1.49-.988-2.384 0-.894.355-1.752.988-2.384.632-.633 1.49-.988 2.384-.988h160.2c.894 0 1.752.355 2.384.988.633.632.988 1.49.988 2.384 0 1.862-1.51 3.372-3.372 3.372z"/>
        <path fill="url(#lbpxu5y22e)" d="M303.984 168.456L294.666 175.2 177.966 175.2 169.206 168.456z"/>
        <path fill="#000405" d="M234.528 218.76L136.812 291.612 334.26 291.612z" opacity=".05"/>
        <path fill="#68E1FD" d="M150.24 54.12c-4.92-10.554-23.4-8.82-23.4-8.82 11.4-6.726 9.216-23.808 9.078-24.816 4.986 14.892 22.2 11.604 23.742 11.28-11.43 2.82-9.42 22.356-9.42 22.356zM118.2 75.774c-3.126-6.708-14.88-5.604-14.88-5.604 7.44-4.422 5.754-15.804 5.754-15.804v.066c3.192 9.414 14.112 7.326 15.084 7.122-7.236 1.8-5.958 14.22-5.958 14.22z"/>
        <path fill="#3F3D56" d="M432.936 55.62c1.45-1.163 3.282-1.741 5.136-1.62 1.357-.055 2.686.403 3.72 1.284.797.894 1.303 2.01 1.452 3.198.293 1.473.404 2.976.33 4.476-.132 2.754-.846 5.67.342 8.16.282.592.664 1.132 1.128 1.596.537.6 1.285.972 2.088 1.038.825.037 1.554-.534 1.716-1.344-.694 1.546-1.976 2.752-3.56 3.351-1.586.599-3.345.542-4.888-.159-.498-.228-.965-.516-1.392-.858l1.044 2.118c-.865-.222-1.702-.54-2.496-.948-2.55-1.386-3.978-4.2-4.656-7.044-.6-2.61-.72-5.304-1.284-7.926-.414-1.998-.306-3.87 1.32-5.322z"/>
        <path fill="#68E1FD" d="M432.168 58.5c.518-.018 1.035.061 1.524.234.826.343 1.393 1.118 1.47 2.01.047.899-.443 1.74-1.248 2.142-.513.21-1.066.306-1.62.282-.504 0-1.014 0-1.518-.048-.325.03-.622-.186-.696-.504-.329-.653-.577-1.344-.738-2.058-.414-2.208 1.074-2.076 2.826-2.058z"/>
        <path fill="url(#87wucz9nsf)" d="M422.4 79.566s-.096 1.734-.216 3.99c-.102 1.902-.228 4.2-.33 6.108-.174 3.228-1.56 6.27-3.882 8.52-1.356 1.386-4.59 3.972-7.056 3.054-1.2-.444-1.242-1.956-.99-2.862.556-1.652.866-3.376.918-5.118.04-1.41-.087-2.82-.378-4.2-1.542-3.858 11.934-9.492 11.934-9.492z"/>
        <path fill="url(#0n12zuv8pg)" d="M422.4 79.566s-.096 1.734-.216 3.99c-.948 2.112-1.836 3.834-2.322 4.692-.978 1.734-4.998 4.464-9 5.01.04-1.41-.087-2.82-.378-4.2-1.56-3.858 11.916-9.492 11.916-9.492z"/>
        <path fill="url(#th12xai18h)" d="M410.664 56.592c-7.108.431-12.52 6.542-12.09 13.65 0 .306.048.6.09.912.401 5.242 1.747 10.369 3.972 15.132 4.2 7.2 14.844 1.278 16.53-1.686 1.686-2.964 8.154-16.332 5.436-20.118-1.872-2.556-7.062-8.166-13.938-7.89z"/>
        <path fill="#3F3D56" d="M406.884 49.278c4.516-1.318 9.333-1.178 13.764.402 4.362 1.656 8.124 5.064 9.786 9.426 1.427 4.043 1.29 8.473-.384 12.42-1.689 3.914-4.38 7.314-7.8 9.858-.882-2.7 1.836-5.1 2.892-7.734.246-.486.3-1.048.15-1.572-.384-.978-1.848-1.086-2.682-.45-.834.636-1.2 1.71-1.506 2.712.81-4.29 1.41-9.33-1.626-12.474-1.8-1.86-4.518-2.556-7.11-2.58-4.811-.014-9.414 1.965-12.714 5.466-.954 1.026-2.31 2.286-3.522 1.578-.377-.258-.673-.618-.852-1.038-3.582-7.092 5.826-14.43 11.604-16.014z"/>
        <path fill="#3F3D56" d="M412.68 57.204c-3-1.32-6.15-2.4-9.408-2.4-3.258 0-6.636 1.104-8.79 3.552-1.125 1.364-1.943 2.954-2.4 4.662-.36 1.069-.503 2.2-.42 3.324.13.816.331 1.619.6 2.4.564 1.944.804 4.2-.426 5.832-.462.659-1.2 1.07-2.004 1.116-.822.015-1.526-.584-1.644-1.398-.528 1.494.336 3.246 1.71 4.032 1.432.727 3.107.808 4.602.222.622-.195 1.199-.511 1.698-.93.494-.475.9-1.034 1.2-1.65 1.254-2.274 1.884-4.8 2.82-7.254.936-2.454 2.292-4.8 4.506-6.18 1.754-.958 3.725-1.448 5.724-1.422 1.986-.066 3.984.096 5.964-.084 1.98-.18.546-1.356-.306-1.974-1.076-.731-2.224-1.35-3.426-1.848z"/>
        <path fill="url(#jz5a9ny7vi)" d="M493.266 35.694c.51.396-4.266 4.116-4.266 4.116s-2.232 3.846-4.5 4.914c-2.268 1.068-19.308 28.89-19.308 28.89l-6.726-6.096L472.974 48s4.8-9.198 4.266-13.2c0 0 .288-4.728 1.734-2.532 1.02 1.566.366 4.032 1.572 4.296.134.012.268-.018.384-.084 1-.607 1.918-1.34 2.73-2.184 2.4-2.286 5.268-5.466 5.268-5.466s1.572-.666 1.374 0c-.198.666-3.084 5.16-3.246 5.4.27-.246 4.698-4.2 5.4-3.894.702.306-3.432 4.86-3.672 5.124.258-.18 4.98-3.468 5.334-3.174.666.558-3.6 4.26-3.954 4.542.27-.144 2.616-1.518 3.102-1.134z"/>
        <path fill="url(#jrtn226t6j)" d="M488.202 38.544c-.358.117-.738.147-1.11.09-1.21-.092-2.424-.112-3.636-.06-.816.036-2.502.6-2.544-.666 0-.336.084-.666.066-1.002-.008-.145-.028-.29-.06-.432 1-.607 1.918-1.34 2.73-2.184.368.123.715.299 1.032.522l2.364 1.53c.42.276.84.552 1.242.852.178.111.32.272.408.462.077.377-.131.754-.492.888z"/>
        <path fill="url(#h2jp74jutk)" d="M371.04 4.452c-.648.072 1.452 5.748 1.452 5.748s-.132 4.446 1.2 6.546c1.332 2.1 1.2 34.29 1.2 34.29l8.928-1.2-2.028-24.246s.774-10.344 3.336-13.458c0 0 2.244-4.17-.138-3.066-1.692.792-2.442 3.228-3.6 2.82-.122-.058-.222-.155-.282-.276-.545-1.04-.949-2.147-1.2-3.294-.846-3.21-1.59-7.422-1.59-7.422s-.96-1.38-1.116-.714c-.156.666-.102 6-.096 6.306-.102-.342-1.8-6.054-2.55-6.156-.75-.102.354 5.94.426 6.288-.132-.288-2.4-5.568-2.868-5.508-.858.126.846 5.538.972 5.94-.168-.264-1.434-2.658-2.046-2.598z"/>
        <path fill="url(#7mzrbgmyql)" d="M373.8 9.546c.25.288.564.512.918.654 1.075.563 2.117 1.189 3.12 1.872.678.462 1.8 1.842 2.514.774.192-.276.282-.6.474-.882.087-.12.182-.233.282-.342-.545-1.04-.949-2.147-1.2-3.294-.377-.089-.765-.121-1.152-.096l-2.814.054c-.505-.011-1.01.011-1.512.066-.213-.001-.422.061-.6.18-.261.283-.274.716-.03 1.014z"/>
        <path fill="url(#s33sv9irum)" d="M339.402 287.526c-2.4 4.902-4.146 8.712-4.146 8.712l-30.198 1.44s5.004-13.242 13.146-9.822c2.754 1.152 12.732-1.014 12.732-1.014l.312-1.002 8.154 1.686z"/>
        <path fill="#3F3D56" d="M446.43 289.008l-4.626 2.592-39.6-41.628-4.368-55.572-36.108 32.754s.966 22.554-11.658 40.2c-2.262 3.162-6.864 12.348-10.344 19.524-.108.222-.216.45-.318.672l-.678-.138-2.358-.492-5.118-1.056 16.596-67.08 37.71-60.036 24.786 6.6 11.4 3.042s7.692 15.414 0 55.308l-5.1 22.836s20.556 10.962 26.892 32.646l2.862 9.816.03.012z"/>
        <path fill="url(#kh1b80bshn)" d="M446.43 289.008l4.698 4.914-11.928 12.432h-15.6s3.324-5.49 9.972-6.36c6.648-.87 8.238-8.4 8.238-8.4l4.62-2.586z"/>
        <path fill="#FFF" d="M129.486 44.436l-2.634.864c11.4-6.726 9.216-23.808 9.078-24.816.18.81 2.832 12.084 1.386 15.786-1.806 4.626-7.83 8.166-7.83 8.166zM110.646 65.064c-1.392 1.926-6.924 4.896-7.302 5.094 7.44-4.422 5.754-15.804 5.754-15.804v.066c.294.78 2.904 8.76 1.548 10.644zM107.19 128.562L229.392 222.588 234.528 218.76 106.746 120.354zM238.572 221.982L370.398 127.098 370.398 120.624 234.528 219.024zM370.326 119.184l-.36 1.008-2.682 2.682c1.884-3.252-3.438-10.8-3.438-10.8l-2.124-1.59-6.378-4.8-120.816-90.372 3.846-2.946 123.882 94.962c4.538 2.315 7.581 6.785 8.07 11.856z" opacity=".22"/>
        <path fill="url(#z8x4juohwo)" d="M467.64 75.84s-20.298 26.25-24.15 30.648c-7.026 7.992-11.556 18.474-11.556 18.474l-10.2 43.404-11.4-3.042s10.644-39.798 14.922-48.246c4.278-8.448 39.924-43.464 39.924-43.464l2.46 2.226z"/>
        <path fill="#25233A" d="M446.4 288.996c-.21-.6-6.984-19.416-17.154-27.306-10.326-8.016-16.326-19.08-16.326-19.08-2.4-21.24-2.598-77.286-2.598-77.286l11.4 3.042s7.692 15.414 0 55.308l-5.1 22.836s20.556 10.986 26.892 32.67l2.886 9.816zM361.728 227.142s.966 22.554-11.658 40.2c-2.262 3.162-6.864 12.348-10.344 19.524l-.996.534-2.358-.492 19.572-61.734S379.65 197.088 384 194.4c4.35-2.688 13.848 0 13.848 0l-36.12 32.742z"/>
    </g>
</svg>
