<svg xmlns="http://www.w3.org/2000/svg" width="30" height="30" viewBox="0 0 30 30">
    <path fill="#E2E2E2" fill-rule="nonzero" d="M7.46 13.664c-.808 0-1.46.633-1.46 1.416 0 .784.652 1.416 1.46 1.416.807 0 1.459-.632 1.459-1.416 0-.783-.652-1.416-1.46-1.416zM7.46 8C6.651 8 6 8.633 6 9.416c0 .784.652 1.416 1.46 1.416.807 0 1.459-.632 1.459-1.416C8.919 8.633 8.267 8 7.459 8zm0 11.489c-.72 0-1.295.566-1.295 1.255 0 .69.584 1.256 1.294 1.256.71 0 1.295-.566 1.295-1.256 0-.689-.575-1.255-1.295-1.255zm2.918 2.2H24V19.8H10.378v1.888zm0-5.665H24v-1.888H10.378v1.888zm0-7.552v1.888H24V8.472H10.378z"/>
</svg>
