<?xml version="1.0" encoding="UTF-8"?>
<svg width="36px" height="36px" viewBox="0 0 36 36" version="1.1" xmlns="http://www.w3.org/2000/svg" xmlns:xlink="http://www.w3.org/1999/xlink">
    <title>logo</title>
    <g id="Page-1" stroke="none" stroke-width="1" fill="none" fill-rule="evenodd">
        <g id="Page-7---Confirmation-Email" transform="translate(-1141.000000, -655.000000)">
            <g id="logo" transform="translate(1141.000000, 655.000000)">
                <rect id="Rectangle" fill="#F5E106" x="0" y="0" width="36" height="36" rx="8"></rect>
                <g id="bird-2" transform="translate(7.000000, 4.000000)" fill="#000000">
                    <path d="M18.8708949,1.7304 L18.8455103,1.8116 C18.4844846,3.0576 18.3208949,3.9928 18.6452538,4.79948 L18.7214077,4.9924 C19.0796128,5.88868 19.5732026,7.11228 19.9342282,8.47868 C20.2839718,9.7888 19.9962795,10.72708 19.6885615,11.718 C19.6465359,11.858 19.6042282,11.998 19.5619205,12.138 C19.3814077,12.75988 19.0175615,13.3952 18.5352538,13.94708 C18.3180744,14.0728 18.0698692,14.14 17.8188436,14.14 C18.0529462,13.8712 18.1598436,13.49628 18.1008949,13.14628 C17.8865359,13.37 17.6044846,13.5324 17.2970487,13.6024 C17.4465359,13.3924 17.5283308,13.1376 17.5283308,12.8828 C18.1319205,12.2836 18.6819205,11.6424 18.9242026,11.0628 C19.3165359,10.11948 19.3729462,9.02468 19.0852538,7.9856 C18.9611513,7.54628 18.7126641,6.91628 18.4703821,6.30868 C18.2419205,5.7288 18.0049974,5.12988 17.9203821,4.788 C17.7539718,4.1356 17.8414077,2.8224 18.4167923,1.4756 L18.9752538,0.6076 L19.9088436,0.7308 L20.0837154,1.1256 L21.1893564,1.5008 L21.1893564,1.58228 L19.6973051,1.32748 C19.4995872,1.32748 19.3024333,1.3916 19.1470231,1.5148 L18.8708949,1.7304 Z M12.6573051,18.34868 C12.4232026,19.2724 11.6221769,19.4712 10.6970487,19.7008 C9.76063846,19.9332 6.74551026,20.43748 6.74551026,20.43748 L5.47627949,25.9588 L5.18858718,26.1324 L4.31140769,26.1324 L4.9626641,25.97 L5.34935641,25.7264 L5.98397179,20.0564 L10.4121769,18.4828 L11.4498436,17.8556 C11.4585872,17.84468 11.4642282,17.8332 11.4726897,17.82228 C11.4783308,17.8108 11.4867923,17.79988 11.4924333,17.78868 C11.6021513,17.61228 11.6983308,17.42748 11.7773051,17.234 C11.8760231,17.4636 11.8957667,17.72988 11.8337154,17.9704 L11.8591,17.98468 C12.0252282,17.8416 12.1467923,17.63748 12.1919205,17.4188 C12.3188436,17.6428 12.3583308,17.9228 12.293459,18.1804 L12.3216641,18.19468 C12.4824333,18.10228 12.6178179,17.9676 12.7137154,17.808 C12.7955103,17.9788 12.7588436,18.18628 12.6573051,18.34868 L12.6573051,18.34868 Z M18.2249974,0 L20.2639462,0.3528 L20.4306385,0.7588 L21.3216385,1.2348 C21.4739462,1.3216 21.5729462,1.4812 21.5729462,1.6576 L21.5729462,1.6576 L21.5729462,1.8508 L19.6944846,1.8508 C19.6126897,1.8508 19.5365359,1.87628 19.4716641,1.9264 L19.4716641,1.9264 L19.3278179,2.03868 C19.0119205,3.1388 18.8737154,3.9536 19.1332026,4.60628 L19.1332026,4.60628 L19.2121769,4.79948 C19.5732026,5.7064 20.0724333,6.94708 20.444741,8.344 C20.8311513,9.79748 20.5067923,10.8528 20.1934333,11.87228 C20.1542282,12.00948 20.1116385,12.1464 20.0696128,12.2836 C19.8016641,13.2104 19.1980744,14.12628 18.3914077,14.84868 L18.3914077,14.84868 L18.6678179,15.4 C18.7496128,15.5652 18.794459,15.74748 18.794459,15.93228 L18.794459,15.93228 L18.794459,16.17 C18.794459,16.3828 18.7383308,16.59 18.6283308,16.7748 L18.6283308,16.7748 L16.6060231,20.1908 L13.4273051,20.7928 C13.1142282,21.73948 12.4824333,23.5788 12.4232026,23.7524 C12.4203821,23.7608 12.4175615,23.7664 12.4175615,23.7664 L12.4175615,23.7664 L13.8757667,24.06628 L13.9349974,24.08 L13.9378179,24.08 L17.2096128,24.7548 L18.4957667,25.72948 L18.9019205,26.908 L18.4337154,28 L18.2701256,27.9328 L18.4703821,26.9136 L18.1967923,26.2304 L17.6637154,25.7964 L17.8978179,26.6476 L17.1613821,27.4736 L17.0488436,27.37868 L17.4973051,26.5888 L17.3055103,26.124 L16.583459,25.39628 L16.4424333,25.73228 L16.4562538,26.33708 L16.2334333,26.4824 L15.9544846,25.7124 L16.1011513,25.21988 C14.9532026,25.16948 11.1624333,24.9956 11.1314077,24.9928 L11.1314077,24.9928 L10.8578179,24.9732 L10.885741,24.70468 C10.8888436,24.6932 11.0044846,23.6404 11.0044846,22.9824 C11.0044846,22.4924 10.9396128,21.9156 10.9085872,21.64988 L10.9085872,21.64988 L10.3921513,21.434 C10.2655103,21.3808 10.1583308,21.294 10.0793564,21.18228 L10.0793564,21.18228 L9.97217692,21.0308 C9.94679231,20.99468 9.92422821,20.9552 9.90448462,20.9132 L9.90448462,20.9132 L9.69012564,20.4456 C8.74525385,20.6276 7.61422821,20.8236 7.18268974,20.8964 L7.18268974,20.8964 L5.9416641,26.2948 L5.33243333,26.65628 L3.56961282,26.51628 L2.67551026,26.0008 L2.13679231,24.7156 L2.43548462,24.82228 L3.07602308,25.8328 L3.33268974,25.9504 L3.0475359,24.54228 L3.34086923,24.6624 L3.67115128,25.65948 L4.38727949,25.7628 L4.76240769,25.54468 L4.46907436,25.0628 L4.00679231,24.7828 L4.08576667,24.5588 L4.70063846,24.7856 L4.94038205,25.0236 L5.49320256,19.6756 L6.41268974,19.348 C6.25192051,19.26708 6.08833077,19.1688 5.95576667,19.05708 C5.60320256,18.76 5.34935641,18.28988 5.10679231,17.83628 C5.05038205,17.7324 4.99679231,17.6288 4.94038205,17.5308 C4.65551026,17.01868 4.57089487,15.9628 4.59345897,15.2908 L4.59345897,15.2908 L3.62038205,15.13988 L3.46807436,14.77 L5.01935641,14.9408 L4.86986923,14.36988 C3.72756154,13.71748 2.50063846,13.3 1.22012564,12.9948 L1.22012564,12.9948 L1.07063846,12.95868 L1.09038205,12.65628 L1.58397179,12.72628 C2.76294615,12.88868 3.89961282,13.2888 4.92345897,13.8964 L4.92345897,13.8964 L5.40576667,14.1876 C6.44089487,14.798 7.49858718,15.20988 7.49858718,15.20988 L7.49858718,15.20988 L7.53243333,15.7948 L6.14474103,16.0188 C6.56762991,16.36096 7.22567436,16.4528498 7.39363485,16.4712709 L7.43371538,16.4752 L7.47320256,16.8476 L6.26038205,17.1388 C6.64961282,17.64 7.54089487,17.5364 7.54089487,17.5364 L7.54089487,17.5364 L7.57756154,17.5364 C8.40115128,17.51708 9.21627949,17.374 9.99756154,17.1108 C9.89856154,16.4836 10.1244846,15.8424 10.6011513,15.40868 L10.6011513,15.40868 L10.8039462,15.2264 C10.0032026,14.08988 9.04422821,13.5716 8.14702308,13.31708 C7.80038205,13.21628 7.4591,13.15748 7.14320256,13.1152 C7.11499744,13.1124 7.08933077,13.10708 7.06422821,13.104 C6.75115128,13.0676 6.45217692,12.9556 6.20397179,12.78228 L6.20397179,12.78228 L5.63986923,12.39 L5.71884359,11.8048 L6.5026641,12.3536 C6.68345897,12.47708 6.90063846,12.558 7.1291,12.58628 C7.43061282,12.6224 7.76935641,12.67868 8.12445897,12.7708 C8.95115128,12.4824 9.73243333,12.2136 10.0003821,12.138 C10.6180744,11.9616 11.9098692,11.8188 12.6149974,11.98708 C13.514741,12.19708 15.0152538,12.8128 16.1829462,13.4204 C17.0516641,12.6448 18.1093564,11.6564 18.4365359,10.864 C18.8849974,9.7888 18.7608949,8.7808 18.5775615,8.1256 C18.4591,7.7112 18.2190744,7.0952 17.9824333,6.4988 C17.7367667,5.87748 17.5026641,5.28948 17.4098692,4.91708 C17.3252538,4.5836 17.2970487,4.12468 17.3393564,3.5924 C17.4352538,2.478 17.8414077,1.4112 18.4675615,0.4816 L18.4675615,0.4816 L18.6283308,0.2436 L18.2249974,0.0728 L18.2249974,0 Z M5.55903333,13.014008 C6.02272564,13.397328 6.67003333,13.696648 7.48995641,14.031528 L7.49982821,14.601608 C7.17462308,14.499408 6.65480256,14.262248 6.19139231,14.011368 C5.93839231,13.874168 5.69272564,13.732488 5.48175128,13.604528 L5.55903333,13.014008 Z M0.0262307692,10.917592 L0.762948718,11.085312 C2.24146154,11.422152 3.65764103,11.987472 4.95987179,12.760832 L4.90825641,13.251952 C3.53382051,12.439112 2.06207692,11.800152 0.527435897,11.351032 L1.00204745e-14,11.196752 L0.0262307692,10.917592 Z M1.36715897,10.282244 L1.91433846,10.406844 C3.04874872,10.665004 4.13295385,11.106004 5.12351795,11.712204 L5.0578,12.226284 C4.03000513,11.566884 2.91251795,11.057284 1.73890256,10.714004 L1.34713333,10.599204 L1.36715897,10.282244 Z" id="Fill-3"></path>
                </g>
            </g>
        </g>
    </g>
</svg>